HIERARCHY
ROOT Hips
{
	OFFSET 0.000000 0.000000 0.000000
	CHANNELS 6 Xposition Yposition Zposition Zrotation Yrotation Xrotation 
	JOINT LHipJoint
	{
		OFFSET 0.000000 0.000000 0.000000
		CHANNELS 3 Zrotation Yrotation Xrotation
		JOINT LeftUpLeg
		{
			OFFSET 1.363060 -1.794630 0.839290
			CHANNELS 3 Zrotation Yrotation Xrotation
			JOINT LeftLeg
			{
				OFFSET 2.448110 -6.726130 0.000000
				CHANNELS 3 Zrotation Yrotation Xrotation
				JOINT LeftFoot
				{
					OFFSET 2.562200 -7.039590 0.000000
					CHANNELS 3 Zrotation Yrotation Xrotation
					JOINT LeftToeBase
					{
						OFFSET 0.157640 -0.433110 2.322550
						CHANNELS 3 Zrotation Yrotation Xrotation
						End Site
						{
							OFFSET 0.000000 0.000000 0.000000
						}
					}
				}
			}
		}
	}
	JOINT RHipJoint
	{
		OFFSET 0.000000 0.000000 0.000000
		CHANNELS 3 Zrotation Yrotation Xrotation
		JOINT RightUpLeg
		{
			OFFSET -1.305520 -1.794630 0.839290
			CHANNELS 3 Zrotation Yrotation Xrotation
			JOINT RightLeg
			{
				OFFSET -2.542530 -6.985550 0.000000
				CHANNELS 3 Zrotation Yrotation Xrotation
				JOINT RightFoot
				{
					OFFSET -2.568260 -7.056230 0.000000
					CHANNELS 3 Zrotation Yrotation Xrotation
					JOINT RightToeBase
					{
						OFFSET -0.164730 -0.452590 2.363150
						CHANNELS 3 Zrotation Yrotation Xrotation
						End Site
						{
							OFFSET 0.000000 0.000000 0.000000
						}
					}
				}
			}
		}
	}
	JOINT LowerBack
	{
		OFFSET 0.000000 0.000000 0.000000
		CHANNELS 3 Zrotation Yrotation Xrotation
		JOINT Spine
		{
			OFFSET 0.028270 2.035590 -0.193380
			CHANNELS 3 Zrotation Yrotation Xrotation
			JOINT Spine1
			{
				OFFSET 0.056720 2.048850 -0.042750
				CHANNELS 3 Zrotation Yrotation Xrotation
				JOINT Neck
				{
					OFFSET 0.000000 0.000000 0.000000
					CHANNELS 3 Zrotation Yrotation Xrotation
					JOINT Neck1
					{
						OFFSET -0.054170 1.746240 0.172020
						CHANNELS 3 Zrotation Yrotation Xrotation
						JOINT Head
						{
							OFFSET 0.104070 1.761360 -0.123970
							CHANNELS 3 Zrotation Yrotation Xrotation
							End Site
							{
								OFFSET 0.000000 0.000000 0.000000
							}
						}
					}
				}
				JOINT LeftShoulder
				{
					OFFSET 0.000000 0.000000 0.000000
					CHANNELS 3 Zrotation Yrotation Xrotation
					JOINT LeftArm
					{
						OFFSET 3.362410 1.200890 -0.311210
						CHANNELS 3 Zrotation Yrotation Xrotation
						JOINT LeftForeArm
						{
							OFFSET 4.983000 -0.000000 -0.000000
							CHANNELS 3 Zrotation Yrotation Xrotation
							JOINT LeftHand
							{
								OFFSET 3.483560 -0.000000 -0.000000
								CHANNELS 3 Zrotation Yrotation Xrotation
								JOINT LeftFingerBase
								{
									OFFSET 0.000000 0.000000 0.000000
									CHANNELS 3 Zrotation Yrotation Xrotation
									JOINT LeftHandIndex1
									{
										OFFSET 0.715260 -0.000000 -0.000000
										CHANNELS 3 Zrotation Yrotation Xrotation
										End Site
										{
											OFFSET 0.000000 0.000000 0.000000
										}
									}
								}
								JOINT LThumb
								{
									OFFSET 0.000000 0.000000 0.000000
									CHANNELS 3 Zrotation Yrotation Xrotation
									End Site
									{
										OFFSET 0.000000 0.000000 0.000000
									}
								}
							}
						}
					}
				}
				JOINT RightShoulder
				{
					OFFSET 0.000000 0.000000 0.000000
					CHANNELS 3 Zrotation Yrotation Xrotation
					JOINT RightArm
					{
						OFFSET -3.136600 1.374050 -0.404650
						CHANNELS 3 Zrotation Yrotation Xrotation
						JOINT RightForeArm
						{
							OFFSET -5.241900 -0.000000 -0.000000
							CHANNELS 3 Zrotation Yrotation Xrotation
							JOINT RightHand
							{
								OFFSET -3.444170 -0.000000 -0.000000
								CHANNELS 3 Zrotation Yrotation Xrotation
								JOINT RightFingerBase
								{
									OFFSET 0.000000 0.000000 0.000000
									CHANNELS 3 Zrotation Yrotation Xrotation
									JOINT RightHandIndex1
									{
										OFFSET -0.622530 -0.000000 -0.000000
										CHANNELS 3 Zrotation Yrotation Xrotation
										End Site
										{
											OFFSET 0.000000 0.000000 0.000000
										}
									}
								}
								JOINT RThumb
								{
									OFFSET 0.000000 0.000000 0.000000
									CHANNELS 3 Zrotation Yrotation Xrotation
									End Site
									{
										OFFSET 0.000000 0.000000 0.000000
									}
								}
							}
						}
					}
				}
			}
		}
	}
}
MOTION
Frames: 6
Frame Time: 0.008333
0.760149 17.978071 -26.995813 -1.557985 -2.169830 0.666816 -1.566377 5.091566 3.721115 -16.563593 -11.044411 -19.250926 -0.680978 5.817936 20.811389 0.011255 1.391046 13.003730 0.005300 0.470500 1.292900 0.706744 -5.081736 4.740219 21.521910 8.930212 -10.843770 -10.879493 -15.105899 60.770252 0.829063 -6.253175 16.021477 -0.015700 0.809200 -2.223900 0.344481 0.768183 5.475700 2.889740 1.182788 4.848470 0.728782 0.564765 -7.809630 -5.470700 -5.135536 -16.705959 3.566556 -5.874865 21.120516 -0.184300 -2.365700 10.090200 -7.231860 2.940738 -1.207504 -83.032949 4.050498 19.056475 8.835166 -15.355274 -1.168059 -0.526348 -0.699925 -0.639324 27.513597 19.232612 10.286800 -7.125000 0.000000 0.000000 -0.364000 52.297900 -0.065400 11.164705 -1.747700 -2.400883 73.680247 2.391146 10.779357 -12.893997 25.639858 -3.529196 1.003090 -0.300045 -0.683622 -17.031104 22.573420 -7.180200 7.125000 0.000000 0.000000 6.841900 -6.302100 6.094200 
0.775925 17.977472 -26.831163 -1.497343 -2.207587 0.521315 -1.539877 5.138515 3.801289 -16.836422 -10.959874 -18.758591 -0.591635 5.916094 21.227946 -0.060044 1.491948 12.211880 0.011200 0.683600 1.878500 0.636269 -5.046938 4.651014 21.422466 9.154038 -12.036185 -11.306127 -15.355097 62.150556 1.014009 -6.708250 14.741372 -0.024800 1.015700 -2.791900 0.329824 0.734063 5.515618 2.871117 1.139938 4.933262 0.741887 0.539075 -7.768376 -5.365068 -5.033711 -16.533397 3.477880 -5.766338 20.971857 -0.213200 -2.323900 10.008700 -7.232171 2.916821 -1.209849 -82.870307 3.879771 19.735872 8.998425 -15.639149 -1.212388 -0.525912 -0.733243 -1.387251 28.009259 20.250153 11.013900 -7.125000 0.000000 0.000000 -0.060900 53.537900 -0.012800 11.173158 -1.764099 -2.408175 73.702581 2.322675 10.832655 -12.699981 25.361741 -3.436044 1.016343 -0.275990 -0.224581 -17.651846 21.880234 -7.225700 7.125000 0.000000 0.000000 6.390000 -6.957300 5.604700 
0.786708 17.984462 -26.673402 -1.584472 -2.198137 0.420196 -1.528609 5.186218 3.883867 -16.874924 -10.880873 -18.156877 -0.570916 5.894352 21.279460 -0.112498 1.587156 11.661500 0.010100 0.648500 1.782100 0.595235 -5.013163 4.560892 21.512523 9.378549 -13.237530 -11.652664 -15.557877 63.257097 1.174959 -7.153829 13.758570 -0.010900 0.674300 -1.853200 0.194568 0.621776 5.695780 3.179656 0.985161 4.759807 1.009379 0.466698 -7.995378 -5.618284 -4.803639 -15.767303 3.393575 -5.449646 20.709733 -0.151900 -2.220700 9.793900 -7.237783 2.883422 -1.196750 -83.065996 3.929758 19.423436 9.084214 -15.768374 -1.236227 -0.530222 -0.729577 -1.283790 28.125936 20.101472 10.992900 -7.125000 0.000000 0.000000 0.097800 53.395700 0.020200 11.187320 -1.797981 -2.433285 73.507375 1.873233 10.828237 -12.517783 25.129317 -3.360734 1.014313 -0.272460 0.291042 -17.614251 21.550750 -7.105600 7.125000 0.000000 0.000000 6.389300 -7.313100 5.559600 
0.798291 17.998740 -26.519135 -1.411679 -2.373297 0.287891 -1.523921 5.235236 3.965103 -17.189660 -10.779651 -17.551498 -0.524793 5.903535 21.442046 -0.209205 1.820033 10.959447 0.015000 0.791600 2.175500 0.539376 -4.983181 4.472894 21.275864 9.792370 -14.399376 -11.953911 -15.753526 64.269954 1.268684 -7.303345 12.700506 -0.002100 0.293200 -0.805700 -0.002799 0.648108 6.164838 3.140098 1.007037 4.638977 1.095278 0.473890 -8.351021 -5.581409 -4.774215 -15.628804 3.291720 -5.417585 20.668176 -0.182100 -2.217600 9.749200 -7.233518 2.873285 -1.189618 -82.912915 3.791610 19.425149 9.192129 -15.947265 -1.268272 -0.526222 -0.725937 -0.886038 27.940681 20.137997 10.925200 -7.125000 0.000000 0.000000 -0.114500 53.398600 -0.023700 11.196223 -1.823983 -2.437170 73.647072 1.642119 10.340277 -12.308510 24.838566 -3.270247 1.008210 -0.287093 0.945004 -17.426449 21.506298 -7.016300 7.125000 0.000000 0.000000 6.507100 -7.380700 5.654800 
0.809174 18.004931 -26.359877 -1.206871 -2.702367 0.195902 -1.522683 5.282737 4.061030 -17.537547 -10.476539 -17.017202 -0.488333 5.904726 21.576718 -0.272045 1.937920 10.245550 0.031100 1.139200 3.132000 0.482052 -4.947619 4.386074 20.962831 10.272049 -15.566370 -12.196103 -15.922259 65.094107 1.350558 -7.409893 11.632615 -0.000300 0.102300 -0.281100 -0.154548 0.690128 6.337432 3.006169 1.049880 4.758536 1.114812 0.489391 -8.377116 -5.431909 -4.754356 -16.136249 3.238381 -5.363268 20.863628 -0.216300 -2.180500 9.894300 -7.237410 2.877831 -1.191901 -82.663764 3.363116 19.656988 9.314825 -16.158190 -1.304164 -0.523977 -0.737202 -0.932331 28.041599 20.603000 11.202000 -7.125000 0.000000 0.000000 -0.116100 53.939500 -0.025500 11.197063 -1.823383 -2.415768 73.885802 1.816252 9.841612 -12.018249 24.403960 -3.134364 1.007768 -0.312788 1.656949 -17.415859 21.632815 -7.055900 7.125000 0.000000 0.000000 6.521200 -7.238700 5.685400 
0.818061 18.004232 -26.197023 -1.133009 -2.965666 0.158274 -1.513778 5.320888 4.159351 -17.743040 -10.034429 -16.606159 -0.465226 5.901962 21.679554 -0.266111 1.828879 9.602079 0.027400 1.069100 2.938900 0.435953 -4.905503 4.303126 20.825252 10.727268 -16.726580 -12.378906 -16.054155 65.721112 1.421883 -7.506223 10.662590 -0.000200 0.085800 -0.235900 -0.255817 0.693884 6.123099 3.019798 1.046818 4.998111 1.199343 0.485951 -8.100033 -5.439479 -4.680977 -16.539302 3.258908 -5.217896 21.111463 -0.189700 -2.103800 10.048000 -7.243868 2.876077 -1.193924 -82.530142 2.906845 19.890416 9.492245 -16.436016 -1.358711 -0.514862 -0.728287 -1.216077 27.878245 20.185922 10.917900 -7.125000 0.000000 0.000000 -0.198300 53.437800 -0.041100 11.192702 -1.809914 -2.400955 73.947535 1.978458 9.737276 -11.803528 24.079021 -3.032213 1.012029 -0.328242 1.982186 -17.505846 21.733661 -7.128300 7.125000 0.000000 0.000000 6.468000 -7.113000 5.654300 
